<?xml version="1.0" encoding="UTF-8"?>
<svg id="Layer_1" data-name="Layer 1" xmlns="http://www.w3.org/2000/svg" viewBox="0 0 600 600">
  <defs>
    <style>
      .cls-1 {
        fill: #676767;
      }

      .cls-1, .cls-2, .cls-3 {
        stroke-width: 0px;
      }

      .cls-2 {
        fill: #e1e1e1;
      }
    </style>
  </defs>
  <g id="visible">
    <g id="bottom">
      <path class="cls-2" d="M417.2,425.24c-15.61,3.18-43.01,2.39-59.46-1.66-15.45-3.8-14.39-8.87.9-11.41l-47.57-10.61c-46.3,6.51-60.19,21.19-18.81,34.01,50.95,15.78,149.21,19.13,198.81,6.14l-73.86-16.48Z"/>
      <path class="cls-2" d="M254.66,503.72c83.78-22,88.43-52.39,37.47-68.18-10.53-3.26-23.26-5.83-37.47-7.7v75.88Z"/>
      <path class="cls-2" d="M190.95,424.16c-15.15.05-30.73.67-46.22,1.88l-.04,21.65c15.38-2.55,32.35-3.18,46.26-2.01v-21.52Z"/>
    </g>
    <g id="top">
      <path class="cls-2" d="M190.95,154.1l-9.49.18c-11.56.28-24.52-.51-36.74-2.54v21.73c15.78,1.27,31.35,1.92,46.22,2v-21.36Z"/>
      <path class="cls-2" d="M254.66,174.53l3.63-.06,11.41,10.04c5.01,5.52,19.33,10.28,41.36,13.37l47.52-10.6c-7.19-1.19-11.16-2.93-11.82-4.83l-4.27-9.35,46.7-.76c10.48-.22,20.61.39,27.94,1.88l73.93-16.49c-23.28-6.11-59.61-8.61-98.02-7.44l-60.45,1.14-7.8-17.08c-3.84-12.91-26.45-27.17-70.13-38.62v78.81Z"/>
    </g>
  </g>
  <g id="back">
    <polygon class="cls-1" points="311.06 401.57 311.06 197.88 358.58 187.28 358.58 412.18 311.06 401.57"/>
    <polygon class="cls-1" points="491.06 441.72 491.06 157.72 417.13 174.21 417.13 425.24 491.06 441.72"/>
  </g>
  <g id="front">
    <polygon class="cls-3" points="254.66 503.72 254.66 95.72 190.95 128.19 190.95 471.23 254.66 503.72"/>
    <polygon class="cls-3" points="109.66 429.84 109.66 169.61 144.73 151.74 144.73 447.68 109.66 429.84"/>
  </g>
</svg>